<svg width="71" height="71" viewBox="0 0 71 71" fill="none" xmlns="http://www.w3.org/2000/svg">
<path d="M11.3527 28.3584L19.3234 41.802L7.98476 41.802L0 28.3584L11.3527 28.3584Z" fill="#A7EF45"/>
<path d="M58.812 41.802L50.8413 28.3584L62.18 28.3584L70.1647 41.802L58.812 41.802Z" fill="#A7EF45"/>
<path d="M28.3608 58.8099L41.8044 50.8392L41.8044 62.1778L28.3608 70.1626L28.3608 58.8099Z" fill="#A7EF45"/>
<path d="M41.8044 11.3506L28.3608 19.3213L28.3608 7.98264L41.8044 -0.00211584L41.8044 11.3506Z" fill="#A7EF45"/>
<path d="M47.1087 56.6128L50.9786 41.4706L58.9962 49.4882L55.1362 64.6404L47.1087 56.6128Z" fill="#A7EF45"/>
<path d="M23.0559 13.548L19.186 28.6902L11.1684 20.6726L15.0284 5.52042L23.0559 13.548Z" fill="#A7EF45"/>
<path d="M56.6145 23.0539L41.4723 19.184L49.49 11.1664L64.6421 15.0264L56.6145 23.0539Z" fill="#A7EF45"/>
<path d="M13.5497 47.1067L28.6919 50.9766L20.6743 58.9942L5.52213 55.1342L13.5497 47.1067Z" fill="#A7EF45"/>
</svg>
